<svg width="240" height="240" viewBox="0 0 240 240" fill="none" xmlns="http://www.w3.org/2000/svg">
  <rect width="240" height="240" rx="48" fill="url(#bg)"/>
  <circle cx="120" cy="120" r="84" fill="url(#glow)" fill-opacity="0.55"/>
  <path d="M64 84C64 72.9543 72.9543 64 84 64H156C167.046 64 176 72.9543 176 84V156C176 167.046 167.046 176 156 176H84C72.9543 176 64 167.046 64 156V84Z" fill="#0A090A" fill-opacity="0.78" stroke="#FFFFFF" stroke-opacity="0.18"/>
  <path d="M89.083 142.233C93.469 146.264 99.165 148.279 106.17 148.279C109.729 148.279 112.63 147.67 114.875 146.451C117.161 145.232 118.304 143.56 118.304 141.433C118.304 139.585 117.591 138.128 116.166 137.061C114.779 135.995 112.307 135.043 108.749 134.205L101.911 132.605C95.3559 131.12 90.5319 128.992 87.4388 126.224C84.3456 123.417 82.7991 119.671 82.7991 114.986C82.7991 111.07 83.8664 107.61 86.001 104.604C88.1734 101.56 91.2466 99.2041 95.2206 97.5374C99.2325 95.8325 103.945 94.98 109.357 94.98C117.635 94.98 124.357 96.8753 129.523 100.666C134.689 104.456 137.773 109.546 138.775 115.936H123.33C122.613 113.206 121.12 111.089 118.851 109.584C116.583 108.08 113.664 107.327 110.095 107.327C106.897 107.327 104.293 107.936 102.282 109.155C100.272 110.336 99.2674 111.943 99.2674 113.977C99.2674 115.651 99.9299 116.997 101.255 118.015C102.618 118.997 104.969 119.861 108.308 120.607L115.256 122.153C122.295 123.73 127.459 125.932 130.746 128.758C134.035 131.587 135.679 135.458 135.679 140.374C135.679 144.33 134.557 147.83 132.314 150.874C130.109 153.917 126.97 156.3 122.9 158.022C118.867 159.726 114.063 160.578 108.487 160.578C99.6105 160.578 92.3858 158.627 86.8146 154.726C81.2801 150.815 78.0142 145.338 77.0171 138.295H92.7941C93.4393 139.889 94.5352 141.202 96.082 142.233H89.083Z" fill="#F4F4F4"/>
  <text x="120" y="208" text-anchor="middle" fill="#F4F4F4" font-size="24" font-family="Arial, Helvetica, sans-serif" font-weight="700" letter-spacing="8">S.O.S</text>
  <defs>
    <linearGradient id="bg" x1="22" y1="24" x2="217" y2="224" gradientUnits="userSpaceOnUse">
      <stop stop-color="#140305"/>
      <stop offset="0.48" stop-color="#060607"/>
      <stop offset="1" stop-color="#1A070B"/>
    </linearGradient>
    <radialGradient id="glow" cx="0" cy="0" r="1" gradientUnits="userSpaceOnUse" gradientTransform="translate(120 120) rotate(90) scale(84)">
      <stop stop-color="#D8142C" stop-opacity="0.9"/>
      <stop offset="1" stop-color="#D8142C" stop-opacity="0"/>
    </radialGradient>
  </defs>
</svg>
